REM DIRINDEX 1\2,1\3,1\4
REM DIRNAME cjc151,folder01,folder02,folder03
TITLE ""
FILE "173 173_TOEFL_3900.mp3" MP3
  TRACK 01 AUDIO
    TITLE "2:cjc151_7544"
    INDEX 01 00:00:00
  TRACK 02 AUDIO
    TITLE "0:"
    INDEX 01 00:01:40
  TRACK 03 AUDIO
    TITLE "3:cjc151_7545"
    INDEX 01 00:03:17
  TRACK 04 AUDIO
    TITLE "0:"
    INDEX 01 00:07:51
  TRACK 05 AUDIO
    TITLE "2:cjc151_7546"
    INDEX 01 00:09:28
  TRACK 06 AUDIO
    TITLE "0:"
    INDEX 01 00:10:49
  TRACK 07 AUDIO
    TITLE "3:cjc151_7547"
    INDEX 01 00:12:28
  TRACK 08 AUDIO
    TITLE "0:"
    INDEX 01 00:16:42
  TRACK 09 AUDIO
    TITLE "2:cjc151_7548"
    INDEX 01 00:18:19
  TRACK 10 AUDIO
    TITLE "0:"
    INDEX 01 00:20:10
  TRACK 11 AUDIO
    TITLE "3:cjc151_7549"
    INDEX 01 00:21:68
  TRACK 12 AUDIO
    TITLE "0:"
    INDEX 01 00:27:18
  TRACK 13 AUDIO
    TITLE "2:cjc151_7550"
    INDEX 01 00:28:70
  TRACK 14 AUDIO
    TITLE "0:"
    INDEX 01 00:30:26
  TRACK 15 AUDIO
    TITLE "3:cjc151_7551"
    INDEX 01 00:32:13
  TRACK 16 AUDIO
    TITLE "0:"
    INDEX 01 00:36:48
  TRACK 17 AUDIO
    TITLE "2:cjc151_7552"
    INDEX 01 00:38:30
  TRACK 18 AUDIO
    TITLE "0:"
    INDEX 01 00:39:58
  TRACK 19 AUDIO
    TITLE "3:cjc151_7553"
    INDEX 01 00:41:38
  TRACK 20 AUDIO
    TITLE "0:"
    INDEX 01 00:46:51
  TRACK 21 AUDIO
    TITLE "2:cjc151_7554"
    INDEX 01 00:48:30
  TRACK 22 AUDIO
    TITLE "0:"
    INDEX 01 00:49:49
  TRACK 23 AUDIO
    TITLE "3:cjc151_7555"
    INDEX 01 00:51:24
  TRACK 24 AUDIO
    TITLE "0:"
    INDEX 01 00:55:46
  TRACK 25 AUDIO
    TITLE "2:cjc151_7556"
    INDEX 01 00:57:25
  TRACK 26 AUDIO
    TITLE "0:"
    INDEX 01 00:58:34
  TRACK 27 AUDIO
    TITLE "3:cjc151_7557"
    INDEX 01 01:00:13
  TRACK 28 AUDIO
    TITLE "0:"
    INDEX 01 01:04:17
  TRACK 29 AUDIO
    TITLE "2:cjc151_7558"
    INDEX 01 01:05:71
  TRACK 30 AUDIO
    TITLE "0:"
    INDEX 01 01:07:55
  TRACK 31 AUDIO
    TITLE "3:cjc151_7559"
    INDEX 01 01:09:34
  TRACK 32 AUDIO
    TITLE "0:"
    INDEX 01 01:14:57
  TRACK 33 AUDIO
    TITLE "2:cjc151_7560"
    INDEX 01 01:16:36
  TRACK 34 AUDIO
    TITLE "0:"
    INDEX 01 01:18:00
  TRACK 35 AUDIO
    TITLE "3:cjc151_7561"
    INDEX 01 01:19:54
  TRACK 36 AUDIO
    TITLE "0:"
    INDEX 01 01:24:00
  TRACK 37 AUDIO
    TITLE "2:cjc151_7562"
    INDEX 01 01:25:53
  TRACK 38 AUDIO
    TITLE "0:"
    INDEX 01 01:27:63
  TRACK 39 AUDIO
    TITLE "3:cjc151_7563"
    INDEX 01 01:29:45
  TRACK 40 AUDIO
    TITLE "0:"
    INDEX 01 01:33:23
  TRACK 41 AUDIO
    TITLE "2:cjc151_7564"
    INDEX 01 01:35:00
  TRACK 42 AUDIO
    TITLE "0:"
    INDEX 01 01:36:47
  TRACK 43 AUDIO
    TITLE "3:cjc151_7565"
    INDEX 01 01:38:24
  TRACK 44 AUDIO
    TITLE "0:"
    INDEX 01 01:41:38
  TRACK 45 AUDIO
    TITLE "2:cjc151_7566"
    INDEX 01 01:43:19
  TRACK 46 AUDIO
    TITLE "0:"
    INDEX 01 01:44:44
  TRACK 47 AUDIO
    TITLE "3:cjc151_7567"
    INDEX 01 01:46:23
  TRACK 48 AUDIO
    TITLE "0:"
    INDEX 01 01:50:27
  TRACK 49 AUDIO
    TITLE "2:cjc151_7568"
    INDEX 01 01:52:06
  TRACK 50 AUDIO
    TITLE "0:"
    INDEX 01 01:53:41
  TRACK 51 AUDIO
    TITLE "3:cjc151_7569"
    INDEX 01 01:55:15
  TRACK 52 AUDIO
    TITLE "0:"
    INDEX 01 01:59:12
  TRACK 53 AUDIO
    TITLE "2:cjc151_7570"
    INDEX 01 02:00:65
  TRACK 54 AUDIO
    TITLE "0:"
    INDEX 01 02:02:13
  TRACK 55 AUDIO
    TITLE "3:cjc151_7571"
    INDEX 01 02:03:71
  TRACK 56 AUDIO
    TITLE "0:"
    INDEX 01 02:07:29
  TRACK 57 AUDIO
    TITLE "2:cjc151_7572"
    INDEX 01 02:09:09
  TRACK 58 AUDIO
    TITLE "0:"
    INDEX 01 02:10:67
  TRACK 59 AUDIO
    TITLE "3:cjc151_7573"
    INDEX 01 02:12:42
  TRACK 60 AUDIO
    TITLE "0:"
    INDEX 01 02:16:11
  TRACK 61 AUDIO
    TITLE "2:cjc151_7574"
    INDEX 01 02:17:61
  TRACK 62 AUDIO
    TITLE "0:"
    INDEX 01 02:19:19
  TRACK 63 AUDIO
    TITLE "3:cjc151_7575"
    INDEX 01 02:20:73
  TRACK 64 AUDIO
    TITLE "0:"
    INDEX 01 02:24:63
  TRACK 65 AUDIO
    TITLE "2:cjc151_7576"
    INDEX 01 02:26:42
  TRACK 66 AUDIO
    TITLE "0:"
    INDEX 01 02:28:16
  TRACK 67 AUDIO
    TITLE "3:cjc151_7577"
    INDEX 01 02:29:70
  TRACK 68 AUDIO
    TITLE "0:"
    INDEX 01 02:33:31
  TRACK 69 AUDIO
    TITLE "2:cjc151_7578"
    INDEX 01 02:35:10
  TRACK 70 AUDIO
    TITLE "0:"
    INDEX 01 02:36:60
  TRACK 71 AUDIO
    TITLE "3:cjc151_7579"
    INDEX 01 02:38:40
  TRACK 72 AUDIO
    TITLE "0:"
    INDEX 01 02:42:40
  TRACK 73 AUDIO
    TITLE "2:cjc151_7580"
    INDEX 01 02:44:15
  TRACK 74 AUDIO
    TITLE "0:"
    INDEX 01 02:45:36
  TRACK 75 AUDIO
    TITLE "3:cjc151_7581"
    INDEX 01 02:47:13
  TRACK 76 AUDIO
    TITLE "0:"
    INDEX 01 02:51:64
  TRACK 77 AUDIO
    TITLE "2:cjc151_7582"
    INDEX 01 02:53:41
  TRACK 78 AUDIO
    TITLE "0:"
    INDEX 01 02:54:66
  TRACK 79 AUDIO
    TITLE "3:cjc151_7583"
    INDEX 01 02:56:46
  TRACK 80 AUDIO
    TITLE "0:"
    INDEX 01 03:00:59
  TRACK 81 AUDIO
    TITLE "2:cjc151_7584"
    INDEX 01 03:02:46
  TRACK 82 AUDIO
    TITLE "0:"
    INDEX 01 03:04:16
  TRACK 83 AUDIO
    TITLE "3:cjc151_7585"
    INDEX 01 03:05:72
  TRACK 84 AUDIO
    TITLE "0:"
    INDEX 01 03:10:38
  TRACK 85 AUDIO
    TITLE "2:cjc151_7586"
    INDEX 01 03:12:15
  TRACK 86 AUDIO
    TITLE "0:"
    INDEX 01 03:13:50
  TRACK 87 AUDIO
    TITLE "3:cjc151_7587"
    INDEX 01 03:15:27
  TRACK 88 AUDIO
    TITLE "0:"
    INDEX 01 03:18:47
